# xmcd
#
# Track frame offsets: 
#        150
#        14015
#        32839
#        48637
#        68151
#        86272
#        101128
#        121196
#        135150
#        154058
#        170053
#        186007
#        207989
#        238030
#
# Disc length: 3580 seconds
#
# Revision: 0
# Processed by: cddbd v1.5.2PL0 Copyright (c) Steve Scherf et al.
# Submitted via: ExactAudioCopy v1.0b1
#
DISCID=bc0dfa0e
DTITLE=Gary Kyle - Livin'
DYEAR=2005
DGENRE=Country
TTITLE0=I'll Pay For This
TTITLE1=Livin'
TTITLE2=I Can't Stop
TTITLE3=Lone Star Tears
TTITLE4=I'm Gone
TTITLE5=Who Cares
TTITLE6=Tonight
TTITLE7=Houston
TTITLE8=Beer Goggle Blues
TTITLE9=Almost
TTITLE10=Her
TTITLE11=God, Family and Friends
TTITLE12=Livin' (Unplugged)
TTITLE13=Livin' music video
EXTD=
EXTT0=
EXTT1=
EXTT2=
EXTT3=
EXTT4=
EXTT5=
EXTT6=
EXTT7=
EXTT8=
EXTT9=
EXTT10=
EXTT11=
EXTT12=
EXTT13=
PLAYORDER=
